<svg xmlns="http://www.w3.org/2000/svg" viewBox="0 0 4680 1752">
  <g transform="translate(0.000000,1752.000000) scale(0.100000,-0.100000)" fill="#0F9A5F" fill-rule="evenodd">
    <path d="M15470 17465 c-14 -43 -109 -131 -169 -157 -25 -10 -69 -41 -98 -69
-43 -41 -58 -49 -90 -49 -57 -1 -89 -20 -131 -74 -30 -40 -47 -53 -91 -67 -32
-10 -69 -32 -95 -56 -22 -22 -59 -53 -81 -69 -46 -34 -325 -313 -325 -325 0
-5 -19 -21 -42 -35 -24 -15 -58 -40 -76 -55 -43 -38 -99 -38 -207 -2 -72 24
-95 26 -235 27 -142 1 -162 -1 -235 -26 -119 -39 -166 -48 -252 -48 -104 0
-136 -11 -193 -64 -37 -35 -59 -46 -104 -56 -47 -9 -69 -22 -123 -68 -139
-120 -276 -260 -320 -325 -25 -38 -63 -80 -84 -94 -43 -28 -59 -65 -59 -135 0
-52 -7 -62 -84 -125 -23 -19 -26 -28 -26 -87 0 -84 -12 -112 -55 -133 -22 -11
-47 -36 -65 -65 l-30 -48 -162 0 c-90 0 -180 -4 -201 -9 -21 -5 -56 -26 -81
-49 -45 -41 -96 -62 -154 -62 -41 0 -78 -19 -117 -60 -16 -18 -55 -49 -85 -70
-93 -65 -205 -186 -244 -265 -19 -38 -52 -88 -75 -109 -45 -44 -55 -77 -66
-226 -4 -47 -18 -130 -31 -185 -13 -55 -24 -127 -24 -161 0 -83 -21 -113 -225
-319 -159 -161 -170 -175 -212 -265 l-45 -95 -9 -155 c-5 -85 -11 -167 -15
-182 -5 -21 2 -40 34 -87 32 -48 41 -73 47 -123 9 -92 22 -122 70 -179 82 -96
88 -238 14 -320 -47 -52 -56 -68 -74 -138 -9 -35 -31 -94 -50 -130 -28 -58
-34 -80 -40 -174 -8 -116 -4 -135 46 -215 15 -24 33 -67 39 -95 18 -76 35
-104 106 -179 89 -92 94 -107 94 -290 0 -181 8 -206 94 -291 62 -62 93 -82
149 -92 54 -10 105 21 212 127 l90 90 1 62 c1 118 2 121 49 174 48 53 70 65
155 82 30 6 73 21 95 35 93 56 116 65 197 74 115 14 143 24 193 70 47 43 62
47 191 54 83 5 121 18 183 64 40 31 110 53 165 53 23 0 67 9 99 20 31 11 63
20 71 20 8 0 28 12 43 26 40 38 80 52 170 63 82 9 144 34 178 71 34 37 55 43
187 49 l128 7 42 41 c60 59 78 63 212 54 101 -6 119 -11 153 -34 22 -15 50
-27 64 -27 35 0 101 -20 119 -35 10 -9 57 -14 146 -17 l131 -3 54 -41 c82 -63
93 -66 218 -71 106 -4 120 -7 164 -34 27 -16 60 -32 75 -35 15 -4 45 -16 67
-27 31 -16 66 -22 156 -27 115 -5 118 -6 171 -43 38 -26 65 -37 91 -37 20 0
59 -9 87 -20 36 -14 74 -20 131 -20 86 0 132 -14 164 -50 11 -12 27 -26 37
-31 26 -14 167 -39 221 -39 63 0 92 -16 160 -90 62 -66 72 -91 63 -148 -3 -20
-10 -82 -16 -137 -6 -55 -15 -140 -21 -190 -6 -49 -14 -490 -19 -978 -8 -719
-12 -904 -25 -975 -8 -48 -15 -115 -15 -149 0 -34 -9 -108 -19 -165 -12 -64
-22 -175 -26 -293 -3 -104 -10 -248 -16 -320 -5 -71 -14 -479 -19 -905 -10
-888 -19 -1083 -69 -1410 -38 -254 -43 -368 -47 -1155 -3 -689 -6 -789 -24
-948 -11 -97 -20 -204 -20 -236 0 -32 -9 -101 -20 -154 -19 -90 -24 -197 -37
-717 -1 -51 -19 -182 -28 -203 -4 -10 -26 -29 -50 -42 -23 -14 -50 -34 -60
-45 -27 -29 -55 -25 -97 17 -37 36 -38 36 -141 42 -80 5 -109 10 -131 26 -52
36 -71 45 -101 45 -16 0 -48 12 -70 25 -34 21 -53 25 -120 25 -93 1 -136 14
-192 59 -53 43 -119 61 -219 61 l-82 0 -52 44 c-62 53 -106 66 -250 72 -153 7
-167 11 -214 54 -58 53 -83 61 -218 70 -107 6 -121 9 -159 36 -103 72 -115 77
-235 84 -108 7 -117 9 -173 44 -32 20 -63 36 -68 36 -6 0 -23 7 -40 15 -53 26
-273 39 -461 25 -175 -12 -210 -21 -270 -69 -47 -36 -99 -51 -184 -51 -37 0
-85 -6 -105 -14 -21 -7 -55 -19 -77 -26 -21 -6 -54 -23 -73 -36 -43 -29 -94
-44 -150 -44 -52 0 -178 -45 -216 -76 -34 -28 -86 -44 -150 -44 -34 0 -58 -7
-86 -26 -26 -16 -59 -27 -97 -31 -41 -4 -69 -14 -92 -31 -27 -21 -50 -27 -125
-33 -179 -16 -202 -22 -250 -66 -50 -47 -68 -52 -211 -62 -107 -8 -110 -9
-206 -76 -40 -28 -51 -30 -169 -36 -69 -4 -127 -8 -129 -8 -2 -1 -24 -21 -50
-45 -62 -58 -85 -66 -190 -66 -109 0 -151 -11 -229 -62 -53 -34 -77 -42 -154
-54 -90 -13 -92 -14 -153 -70 -33 -30 -73 -66 -87 -79 -35 -32 -39 -64 -27
-230 6 -81 7 -195 2 -270 -4 -71 -8 -388 -9 -703 l-2 -572 3632 0 3632 0 6
157 c4 87 7 230 7 318 0 88 5 214 10 280 6 66 15 179 20 250 5 72 16 153 25
181 11 38 17 133 24 366 4 174 12 322 17 329 5 8 12 415 16 904 6 813 11 1010
36 1400 10 147 15 165 47 165 17 0 27 -11 43 -50 21 -51 53 -68 66 -35 7 20
52 19 60 -1 3 -9 6 -37 6 -64 0 -26 9 -76 19 -111 12 -42 21 -111 25 -199 3
-74 11 -229 16 -345 7 -130 9 -408 5 -730 -8 -645 7 -1062 55 -1505 6 -52 15
-158 20 -235 5 -77 16 -232 24 -345 9 -113 16 -323 16 -467 l0 -263 3635 0
3634 0 -4 858 c-3 622 -7 865 -15 884 -12 26 -140 147 -175 165 -11 6 -46 13
-79 17 -66 7 -85 16 -139 62 -44 37 -118 54 -233 54 -90 0 -125 11 -188 58
-64 49 -69 51 -205 61 -105 7 -113 9 -149 40 -65 55 -116 74 -222 78 -139 6
-157 10 -202 51 -44 40 -68 46 -272 76 -68 10 -107 21 -125 35 -99 77 -95 76
-231 81 -121 5 -129 7 -170 35 -97 68 -96 68 -237 78 l-135 11 -41 43 c-52 55
-110 73 -228 73 -103 0 -120 6 -174 55 -55 50 -71 55 -220 67 -166 14 -251 14
-400 0 -66 -6 -121 -12 -123 -12 -1 0 -29 -25 -62 -55 l-60 -55 -91 0 c-76 0
-101 -4 -143 -24 -28 -13 -72 -27 -97 -30 -27 -4 -54 -15 -64 -26 -24 -26 -76
-40 -155 -40 -99 -1 -173 -22 -222 -64 -50 -43 -91 -56 -180 -56 -97 0 -172
-22 -219 -65 -53 -47 -76 -55 -167 -55 -112 -1 -195 -21 -244 -61 -53 -42 -99
-58 -168 -59 -30 0 -79 -9 -108 -20 -29 -11 -65 -20 -81 -20 -16 0 -34 -7 -41
-15 -37 -44 -83 -60 -196 -66 -90 -4 -117 -9 -146 -27 -45 -28 -63 -28 -130 3
-93 42 -93 44 -90 219 4 171 -36 728 -53 757 -4 6 -11 64 -16 128 -4 64 -15
186 -24 271 -13 119 -19 328 -25 905 -4 413 -11 759 -14 770 -3 11 -11 146
-17 300 -11 307 -23 466 -38 535 -6 25 -10 88 -11 140 0 52 -7 154 -16 225
-12 101 -17 314 -24 945 -8 817 -13 938 -51 1151 -5 31 -14 119 -19 195 -5 77
-16 171 -25 209 -13 59 -17 179 -21 790 -2 412 -9 776 -16 850 -6 72 -10 216
-9 320 2 150 -1 199 -14 234 -8 24 -15 63 -15 86 0 40 5 47 61 99 34 32 71 64
84 72 30 19 118 42 200 50 56 6 73 12 108 42 55 46 75 52 165 52 106 0 233 23
273 48 91 57 109 63 222 72 166 13 214 25 271 64 71 49 96 56 189 56 45 0 99
4 120 9 36 9 54 20 146 86 32 24 42 25 164 25 145 0 219 16 275 59 79 60 80
61 199 61 61 0 122 -4 136 -9 13 -5 42 -27 65 -49 46 -44 72 -52 176 -52 100
-1 143 -13 185 -54 50 -48 91 -63 201 -71 107 -8 122 -14 165 -60 24 -25 46
-36 102 -49 40 -9 97 -16 128 -16 61 0 86 -9 127 -48 39 -36 158 -72 241 -72
76 0 93 -7 156 -61 51 -45 92 -59 181 -59 79 -1 121 -15 182 -62 31 -23 67
-41 102 -48 30 -6 74 -24 99 -41 45 -29 97 -88 97 -108 0 -6 11 -11 24 -11 27
0 56 -24 56 -46 0 -8 -5 -35 -11 -60 -16 -64 -1 -95 64 -125 33 -15 57 -34 67
-53 24 -47 57 -73 110 -86 60 -14 65 -11 157 91 91 101 97 117 94 276 -2 167
15 222 96 299 56 54 85 107 103 189 6 28 27 77 48 110 37 60 37 60 37 171 l0
112 -37 53 c-48 70 -55 90 -68 179 -11 73 -26 103 -73 138 -64 49 -62 207 3
242 39 21 68 90 84 199 14 89 22 115 55 170 32 54 42 82 51 151 19 141 2 233
-57 303 -13 16 -39 62 -58 103 -30 66 -52 92 -199 239 -95 94 -175 183 -187
207 -17 33 -24 69 -29 153 -4 72 -14 132 -29 174 -14 40 -24 100 -28 163 -5
85 -10 104 -30 128 -12 15 -23 34 -23 41 0 8 -15 26 -34 41 -22 17 -40 46 -52
80 -24 66 -136 188 -233 252 -36 24 -79 58 -96 76 -40 42 -76 60 -122 60 -58
0 -105 17 -141 50 -65 59 -84 64 -252 67 -85 2 -165 6 -177 8 -13 3 -33 24
-48 50 -15 24 -34 47 -43 50 -9 3 -28 14 -42 24 -21 17 -25 30 -31 101 l-6 81
-56 53 c-48 44 -57 58 -57 87 0 58 -21 112 -55 144 -18 16 -45 50 -61 75 -36
57 -129 158 -266 287 -97 92 -114 104 -173 122 -39 11 -84 34 -109 55 -24 20
-57 41 -73 47 -15 6 -98 14 -183 18 l-155 7 -74 40 c-75 39 -75 39 -190 39
-64 0 -170 -9 -235 -19 -137 -21 -202 -16 -282 19 -36 16 -63 37 -83 66 -17
23 -45 52 -63 65 -17 13 -38 34 -47 47 -26 39 -183 191 -221 214 -20 12 -47
34 -60 48 -14 15 -54 44 -90 65 -36 21 -81 55 -100 74 -25 27 -53 42 -103 57
-49 15 -81 32 -112 60 -23 22 -64 47 -89 55 -59 20 -148 101 -176 159 l-22 45
-1138 0 -1138 0 -12 -35z m1978 -1480 c39 -21 179 -167 192 -200 13 -35 2
-228 -15 -271 -7 -18 -54 -75 -105 -127 -75 -79 -103 -100 -156 -123 -54 -23
-70 -35 -91 -71 -30 -52 -48 -63 -102 -63 -46 0 -62 13 -93 78 -22 45 -23 56
-20 257 3 157 7 218 18 240 21 44 201 233 253 267 50 31 79 35 119 13z m-1504
-24 c75 -15 93 -22 110 -45 21 -28 71 -79 114 -117 23 -19 24 -24 17 -122 -5
-79 -2 -133 14 -237 12 -74 21 -161 21 -193 0 -54 -3 -62 -35 -94 -34 -34 -38
-35 -89 -29 -75 8 -83 13 -117 62 -16 24 -48 53 -69 64 -24 12 -49 37 -65 64
-15 26 -38 49 -56 57 -19 7 -43 31 -60 60 -17 27 -42 52 -60 59 -51 22 -59 43
-59 163 0 69 5 119 14 140 7 18 47 67 88 110 86 89 85 88 232 58z m2884 -480
c42 -33 102 -88 133 -124 l56 -65 6 -109 6 -108 -29 -36 c-16 -21 -41 -62 -56
-93 -17 -37 -37 -62 -56 -72 -21 -11 -38 -35 -59 -82 -40 -90 -178 -232 -224
-232 -35 0 -70 21 -87 53 -7 13 -15 98 -19 207 -4 117 -12 200 -21 225 -20 56
-42 207 -34 238 6 25 177 207 225 239 45 31 75 23 159 -41z m-4203 -5 c61 -13
74 -20 102 -53 37 -45 46 -53 96 -94 33 -27 37 -36 37 -76 0 -24 -9 -95 -19
-156 -11 -62 -22 -134 -26 -162 -4 -27 -22 -86 -40 -130 -18 -45 -36 -103 -41
-130 -13 -90 -86 -132 -147 -85 -16 13 -33 43 -44 76 -11 37 -27 63 -46 78
-34 24 -68 59 -137 136 -33 38 -52 70 -59 100 -15 68 -22 271 -11 310 6 20 31
56 58 81 26 26 61 63 78 83 28 32 36 36 80 36 27 0 81 -7 119 -14z m3293 -522
c53 -37 56 -56 63 -384 7 -323 13 -368 60 -487 26 -63 29 -84 29 -181 l0 -109
-41 -63 c-22 -35 -64 -88 -93 -119 -28 -31 -63 -73 -76 -93 -14 -21 -36 -43
-49 -50 -13 -7 -42 -35 -63 -62 -21 -27 -57 -62 -78 -77 -22 -16 -40 -34 -40
-41 0 -6 -26 -37 -57 -69 -32 -32 -86 -89 -120 -126 -63 -69 -79 -85 -143
-146 -19 -19 -44 -49 -55 -68 -17 -29 -66 -61 -138 -91 -4 -2 -11 -27 -16 -55
-10 -63 -24 -83 -61 -83 -45 0 -57 25 -64 137 -6 82 -4 109 9 140 27 62 34
135 25 240 -15 169 -32 866 -22 893 14 36 100 141 211 256 53 55 123 131 156
168 33 38 83 92 111 120 27 28 59 66 70 84 10 18 34 42 51 53 18 11 45 39 60
62 17 25 45 50 70 62 23 11 59 39 81 63 43 46 80 55 120 26z m-2408 -54 c25
-7 57 -33 110 -92 42 -46 84 -96 94 -113 11 -16 29 -37 40 -45 32 -23 188
-188 207 -220 10 -15 30 -34 45 -42 16 -7 41 -32 57 -55 15 -24 48 -57 73 -73
24 -17 44 -36 44 -43 0 -6 26 -35 58 -65 l57 -53 1 -107 c0 -59 1 -356 3 -660
3 -644 12 -592 -101 -592 l-68 0 -29 48 c-17 26 -45 55 -65 66 -19 10 -47 36
-61 57 -14 21 -43 50 -64 64 -21 14 -50 47 -64 73 -15 26 -67 90 -118 142 -54
56 -103 118 -120 152 -16 31 -44 68 -63 83 -18 14 -46 44 -60 65 -14 22 -34
40 -44 40 -22 0 -62 41 -92 96 -12 23 -33 48 -46 54 -13 7 -30 28 -39 47 -23
48 -40 227 -26 262 7 15 15 140 19 296 l8 270 32 69 c25 53 32 82 32 130 0 73
21 114 71 139 39 19 61 21 109 7z m-1960 -144 c70 -11 76 -14 105 -52 16 -22
50 -56 74 -74 24 -19 54 -51 67 -72 13 -20 37 -44 54 -53 16 -8 41 -32 54 -53
14 -20 45 -51 68 -67 44 -32 97 -119 98 -162 0 -24 -71 -90 -107 -100 -24 -5
-33 -4 -121 21 -84 24 -194 36 -329 36 l-126 0 -33 36 c-19 19 -34 39 -34 43
0 5 -18 20 -40 35 -60 40 -68 59 -76 178 l-7 108 67 65 c36 36 66 69 66 75 0
6 15 19 33 30 36 23 77 24 187 6z m6382 8 c29 -5 53 -22 105 -75 82 -83 103
-120 103 -176 0 -37 -7 -51 -50 -100 -65 -75 -110 -123 -141 -149 -13 -11 -35
-35 -49 -53 l-25 -33 -170 -3 c-105 -1 -206 -9 -264 -19 -52 -10 -105 -15
-117 -12 -28 7 -54 71 -54 132 0 40 7 55 52 113 28 36 70 84 92 107 23 23 82
83 131 133 87 89 122 116 175 132 31 9 162 11 212 3z m-6372 -1084 c19 -6 96
-12 170 -15 174 -7 221 -13 252 -33 89 -60 93 -62 150 -62 32 0 78 -7 103 -16
33 -11 91 -16 198 -17 l151 -2 34 -45 c19 -25 50 -55 68 -68 18 -12 45 -39 59
-60 14 -20 42 -48 62 -62 42 -29 58 -54 74 -119 7 -28 24 -56 49 -81 22 -21
46 -55 55 -76 8 -20 35 -58 59 -84 30 -32 50 -66 62 -104 12 -38 31 -71 56
-96 21 -20 51 -66 67 -101 16 -35 43 -77 60 -94 20 -19 37 -49 48 -85 8 -30
28 -73 44 -94 31 -42 37 -77 17 -93 -22 -18 -149 -24 -252 -13 -74 8 -110 17
-143 35 -147 85 -128 79 -265 85 -106 4 -131 9 -152 25 -104 84 -90 78 -204
86 -114 8 -174 25 -225 61 -67 47 -203 182 -227 223 -14 24 -44 60 -67 80 -29
24 -48 53 -63 91 -11 31 -33 72 -49 92 -16 20 -39 57 -50 82 -28 59 -39 71
-82 98 -38 23 -52 48 -68 121 -6 30 -22 57 -50 85 -51 52 -71 101 -71 171 0
86 39 111 130 85z m-982 -15 c44 -13 67 -31 141 -105 75 -75 92 -97 105 -142
15 -54 28 -71 80 -110 15 -11 37 -42 48 -67 10 -25 35 -62 54 -82 32 -33 35
-41 32 -84 -2 -39 -8 -52 -31 -69 -26 -19 -42 -21 -186 -21 l-157 0 -71 43
c-39 23 -96 50 -128 59 -49 14 -62 23 -92 64 -19 27 -42 51 -52 54 -10 3 -30
19 -46 35 -26 27 -29 39 -38 140 l-10 110 74 78 c41 43 85 85 99 95 32 21 110
22 178 2z m7243 -5 c26 -14 24 -41 -7 -101 -14 -28 -29 -76 -34 -107 -8 -47
-17 -63 -54 -101 -25 -26 -52 -64 -61 -86 -9 -22 -35 -61 -56 -87 -22 -26 -46
-66 -54 -89 -9 -23 -37 -65 -64 -93 -35 -38 -54 -69 -70 -119 -21 -63 -33 -78
-159 -208 -75 -77 -145 -145 -156 -152 -12 -6 -79 -14 -151 -17 -139 -7 -170
-17 -232 -71 -40 -34 -89 -49 -168 -49 -48 0 -70 -6 -110 -30 -40 -23 -62 -30
-107 -30 -31 0 -60 -5 -63 -10 -14 -22 -72 -43 -144 -51 -42 -5 -106 -19 -143
-31 -77 -25 -109 -18 -130 28 -19 40 33 183 89 246 25 28 47 65 53 90 19 77
33 99 70 123 31 20 80 94 80 121 0 4 14 22 30 41 17 18 43 60 60 93 16 32 44
68 61 81 17 12 38 38 46 58 8 20 23 45 33 56 9 11 20 33 24 48 4 16 24 47 45
70 20 23 47 56 58 72 12 17 51 62 88 100 l68 70 71 2 c301 8 448 30 536 81 19
11 55 26 80 32 89 24 436 38 471 20z m1100 -1 c11 -5 54 -44 94 -85 l75 -76
-1 -56 c-2 -139 -8 -156 -94 -242 -52 -52 -89 -81 -109 -86 -17 -3 -40 -12
-52 -19 -11 -7 -46 -16 -77 -20 -39 -5 -71 -17 -103 -39 -81 -55 -82 -56 -214
-56 -156 0 -174 8 -167 79 7 72 27 172 39 195 6 12 26 34 45 49 18 16 41 43
50 60 8 18 36 55 62 82 25 28 62 69 81 91 20 22 59 62 88 87 l53 47 105 0 c58
0 114 -5 125 -11z m-8743 -1179 c9 -5 79 -14 154 -19 145 -10 160 -15 223 -68
23 -20 65 -41 105 -53 99 -29 130 -75 99 -144 -11 -23 -60 -53 -116 -70 -13
-4 -36 -27 -53 -51 -33 -48 -38 -50 -122 -60 -57 -6 -59 -7 -127 -82 l-29 -33
-130 0 c-141 0 -142 0 -176 67 -8 17 -35 42 -58 55 -27 15 -49 37 -62 64 -12
23 -36 58 -53 78 -48 54 -46 104 6 156 22 22 51 55 66 74 29 38 79 66 120 66
14 0 33 7 41 15 17 17 85 20 112 5z m9107 -18 c20 -5 41 -24 62 -58 18 -27 46
-54 62 -61 42 -18 61 -50 61 -106 0 -72 -13 -91 -165 -239 -91 -88 -120 -102
-204 -96 -69 5 -112 22 -171 68 -19 15 -60 33 -90 40 -69 16 -84 24 -139 72
-25 22 -63 43 -88 50 -57 14 -93 56 -93 108 0 57 35 93 105 109 44 10 66 22
97 53 22 22 50 46 62 52 26 13 456 20 501 8z m-8356 -10237 c79 -56 121 -73
189 -80 112 -10 163 -25 252 -73 80 -43 89 -45 183 -50 82 -4 103 -8 130 -28
119 -87 136 -93 253 -94 86 0 124 -12 188 -58 54 -40 94 -49 241 -61 99 -7
147 -23 175 -56 31 -38 93 -58 190 -62 127 -5 135 -8 183 -52 63 -57 80 -63
206 -71 128 -8 154 -15 191 -55 42 -45 85 -58 214 -64 l118 -6 49 -55 c27 -30
61 -72 76 -93 26 -37 26 -39 14 -105 -13 -65 -10 -234 4 -329 7 -42 7 -43 -73
-123 -44 -44 -88 -80 -98 -80 -11 0 -1299 0 -2864 -1 -1565 -1 -2850 -1 -2857
0 -7 0 -26 22 -44 47 -18 26 -44 50 -60 56 -16 6 -35 20 -41 31 -15 28 -18
490 -3 510 5 8 25 21 43 31 17 9 44 36 59 59 14 23 31 45 37 49 6 4 50 8 98 8
122 0 182 15 228 56 56 51 97 64 200 64 105 0 147 14 180 60 32 45 75 60 174
60 123 0 181 15 230 60 61 55 76 60 181 60 109 0 145 11 207 65 48 41 91 55
168 55 87 1 177 24 226 59 62 45 106 61 166 61 94 0 168 17 205 47 86 70 86
70 195 75 111 5 145 17 188 63 44 49 73 55 221 53 133 -3 136 -4 178 -33z
m7738 24 c15 -5 44 -25 63 -43 39 -38 61 -44 205 -56 121 -10 127 -12 188 -66
56 -50 107 -64 237 -64 l89 0 57 -50 c68 -59 100 -70 217 -70 97 0 118 -7 186
-64 53 -44 94 -56 198 -56 96 0 120 -8 190 -61 50 -39 56 -41 172 -54 131 -16
136 -17 195 -64 24 -19 50 -31 70 -31 17 0 40 -7 50 -15 14 -11 47 -15 119
-15 l99 0 49 -49 c57 -57 100 -71 218 -71 75 0 81 -2 98 -27 21 -31 69 -79
109 -109 l28 -21 1 -234 c1 -129 -3 -243 -8 -255 -5 -11 -25 -31 -45 -43 -20
-13 -50 -42 -67 -63 l-30 -40 -2480 0 c-1364 0 -2631 -3 -2815 -7 -369 -9
-380 -7 -414 50 -10 16 -35 41 -56 54 -22 14 -44 33 -49 43 -9 18 -6 401 5
469 3 22 16 40 44 61 22 16 53 47 69 70 33 44 40 47 176 62 64 7 97 15 115 30
79 64 96 71 191 80 142 14 152 17 224 65 53 34 79 45 124 49 31 4 97 13 146
22 77 13 96 20 130 50 51 43 77 51 203 58 113 7 154 20 192 61 39 42 73 55
147 55 85 1 139 13 172 39 91 73 97 76 223 81 71 4 123 11 130 18 7 7 23 12
36 12 13 0 40 14 60 31 49 43 91 59 156 59 31 0 88 6 127 12 58 10 78 19 108
46 20 19 50 40 66 48 37 16 241 19 282 3z"/>
  </g>
  <g transform="translate(0.000000,1752.000000) scale(0.100000,-0.100000)" fill="#B0543A" fill-rule="evenodd">
    <path d="M8617 9422 c-21 -17 -65 -40 -98 -51 -51 -17 -72 -33 -145 -107 -72
-74 -87 -95 -100 -143 -9 -31 -27 -73 -41 -94 -16 -26 -23 -47 -19 -65 3 -15
2 -88 -3 -162 -7 -131 -7 -136 16 -170 12 -19 30 -57 40 -85 17 -52 36 -78
113 -154 68 -67 118 -100 177 -117 34 -10 75 -33 111 -63 71 -59 78 -68 86
-108 7 -29 11 -32 58 -38 27 -4 53 -3 58 1 4 5 15 34 25 64 26 83 26 83 121
120 126 50 139 58 236 157 62 63 94 104 112 146 14 32 34 70 46 84 18 24 20
40 20 205 0 160 -2 183 -19 206 -10 15 -27 55 -36 90 -13 46 -26 69 -48 85
-34 26 -83 73 -113 109 -13 17 -45 33 -89 46 -37 12 -77 30 -89 41 -19 18 -40
21 -201 27 l-180 6 -38 -30z m333 -295 c13 -7 40 -36 60 -64 19 -28 49 -63 66
-77 52 -43 59 -72 44 -189 -12 -98 -14 -103 -48 -132 -19 -16 -45 -41 -56 -54
-70 -80 -72 -81 -129 -81 -30 0 -81 -3 -114 -6 l-60 -7 -64 63 c-35 34 -74 69
-87 78 -40 26 -54 69 -60 179 l-5 104 50 47 c27 26 60 62 73 80 41 61 71 72
195 72 68 0 119 -5 135 -13z M45725 8059 c-44 -4 -102 -12 -130 -18 -27 -6
-84 -12 -125 -14 -63 -3 -83 -9 -124 -35 -33 -21 -63 -32 -87 -32 -46 0 -112
-23 -141 -49 -12 -12 -42 -24 -69 -27 -46 -6 -56 -14 -224 -179 -173 -170
-177 -175 -196 -239 -13 -43 -33 -81 -59 -111 -22 -26 -42 -61 -46 -82 -4 -20
-7 -176 -8 -347 l-1 -311 42 -80 c23 -44 56 -108 73 -142 53 -106 333 -373
413 -393 61 -16 114 -40 134 -62 22 -24 79 -54 151 -79 29 -10 75 -34 100 -52
49 -36 78 -47 173 -66 37 -8 72 -24 102 -47 31 -24 64 -39 113 -49 38 -8 73
-15 77 -15 4 0 29 -19 55 -43 26 -24 67 -51 92 -60 51 -19 230 -181 230 -209
0 -8 12 -42 27 -74 27 -59 27 -61 28 -284 0 -124 -4 -242 -8 -262 -4 -20 -25
-57 -45 -82 -21 -26 -56 -80 -78 -122 -30 -57 -61 -97 -130 -163 -78 -77 -99
-91 -157 -110 -37 -13 -69 -27 -73 -32 -3 -5 -22 -18 -42 -28 -30 -15 -77 -21
-250 -30 l-213 -11 -50 34 c-27 19 -75 44 -105 56 -31 11 -75 35 -98 54 -22
18 -63 45 -89 60 -26 15 -86 65 -133 111 -57 57 -105 94 -148 114 -72 35 -84
37 -153 16 -47 -14 -52 -19 -83 -77 -45 -87 -66 -108 -108 -108 -28 0 -43 9
-84 52 -73 78 -95 115 -113 193 -9 39 -28 88 -42 110 -35 52 -73 127 -73 143
0 17 -65 140 -90 172 -13 17 -23 52 -30 105 -8 64 -20 101 -59 180 -27 55 -57
125 -65 156 -9 30 -36 86 -60 123 -25 38 -48 83 -52 100 -13 62 -48 152 -70
181 -31 42 -69 132 -78 184 -4 24 -22 72 -41 105 -19 34 -44 93 -56 131 -11
39 -38 104 -60 145 -65 127 -99 208 -99 235 0 15 -14 46 -31 70 -17 23 -39 74
-49 113 -21 79 -32 104 -66 145 -22 26 -31 51 -65 181 -7 26 -30 71 -51 100
-21 28 -43 69 -49 91 -28 103 -42 136 -74 177 -25 32 -41 68 -56 129 -24 97
-72 169 -128 194 -80 35 -86 40 -102 90 -15 48 -17 50 -55 53 -38 3 -42 0
-110 -75 -85 -94 -89 -101 -108 -192 -8 -40 -28 -94 -44 -119 -32 -53 -44 -83
-66 -164 -11 -38 -31 -74 -61 -110 -25 -29 -48 -64 -52 -78 -16 -70 -39 -127
-68 -164 -18 -24 -35 -60 -39 -82 -7 -38 -39 -147 -57 -192 -5 -13 -9 -38 -9
-56 0 -22 -11 -47 -34 -77 -18 -24 -41 -66 -50 -94 -9 -27 -31 -69 -50 -93
-20 -24 -39 -64 -46 -95 -16 -66 -39 -112 -84 -166 -27 -32 -36 -52 -36 -80 0
-45 -38 -122 -85 -171 -44 -47 -52 -64 -60 -140 -4 -36 -16 -81 -27 -100 -12
-19 -25 -51 -29 -70 -18 -80 -73 -208 -111 -259 -22 -30 -51 -81 -63 -115 -13
-34 -38 -92 -58 -131 -19 -38 -41 -88 -47 -109 -14 -44 -41 -94 -78 -143 -13
-18 -30 -57 -38 -89 -9 -31 -26 -81 -40 -113 -14 -31 -32 -76 -41 -101 -9 -25
-26 -58 -39 -73 -13 -16 -24 -34 -24 -41 0 -7 -11 -34 -24 -62 -45 -93 -58
-147 -65 -274 -5 -94 -11 -131 -24 -150 -26 -37 -21 -66 16 -93 101 -76 144
-72 232 19 33 34 70 65 82 68 25 8 102 95 127 145 10 18 24 78 31 132 11 86
17 105 53 162 41 64 53 99 78 215 7 35 29 88 48 120 24 38 42 88 57 152 20 88
65 194 131 308 25 43 148 176 177 191 44 23 642 31 1031 15 l145 -6 94 -95
c70 -70 107 -99 144 -113 67 -26 76 -41 77 -128 0 -59 6 -87 29 -140 36 -82
101 -271 101 -293 0 -9 17 -40 38 -70 42 -58 52 -82 77 -174 9 -33 31 -82 49
-110 51 -78 54 -85 66 -175 6 -46 17 -95 25 -110 7 -14 46 -60 87 -102 89 -93
101 -97 303 -99 122 -2 169 2 254 20 107 23 129 31 170 62 32 25 62 24 146 -6
39 -13 78 -25 88 -25 11 0 51 -15 90 -34 108 -52 205 -61 617 -60 193 1 382 6
428 12 93 13 134 37 257 150 36 33 78 63 93 66 152 29 142 25 207 90 173 173
194 186 293 186 l42 0 0 776 0 775 -68 -7 c-80 -7 -112 5 -177 66 -23 21 -66
47 -100 60 -33 12 -79 37 -101 56 -49 39 -71 49 -139 58 -57 9 -85 24 -127 71
-31 36 -63 49 -143 60 -59 8 -115 29 -173 66 -24 15 -62 31 -85 34 -62 11
-104 30 -152 73 -24 21 -63 45 -87 53 -59 19 -292 248 -303 297 -4 18 -22 55
-41 83 -49 73 -57 109 -53 246 4 119 4 120 42 177 20 31 47 82 59 114 16 44
40 77 107 146 93 96 170 141 281 165 30 7 77 22 105 33 66 27 171 21 251 -16
32 -15 85 -33 120 -41 106 -24 147 -50 246 -154 51 -53 115 -109 141 -124 47
-28 53 -29 162 -25 90 2 117 7 132 20 11 10 37 24 59 31 l39 14 3 222 2 221
-79 0 c-57 0 -100 7 -155 25 -42 14 -94 25 -115 25 -41 0 -101 17 -101 29 0
26 -201 74 -380 91 -106 11 -113 11 -225 -1z m-3190 -1123 c13 -13 31 -50 40
-82 8 -33 20 -75 25 -94 5 -20 29 -62 53 -95 25 -33 52 -83 61 -111 9 -29 31
-73 48 -99 17 -25 43 -81 58 -123 14 -42 34 -92 43 -110 27 -49 77 -204 77
-234 0 -42 -17 -76 -71 -144 -34 -43 -60 -66 -82 -72 -19 -5 -106 -6 -202 -1
-94 4 -243 8 -332 8 l-162 1 -75 68 c-63 56 -75 72 -76 98 0 17 7 37 16 45 26
21 41 60 52 132 6 40 23 89 40 120 16 28 35 80 42 115 8 36 24 77 39 97 84
111 95 129 102 173 17 118 37 162 105 236 36 39 76 76 88 83 35 20 84 16 111
-11z M1235 8050 c-27 -4 -78 -9 -113 -9 -97 -1 -149 -18 -179 -57 -21 -28 -32
-34 -63 -34 -21 0 -79 -9 -128 -21 -78 -18 -98 -27 -147 -67 -117 -97 -236
-222 -256 -269 -11 -27 -46 -72 -82 -107 -34 -34 -84 -89 -111 -123 -31 -40
-64 -70 -92 -84 l-44 -21 0 -348 0 -348 53 -30 c28 -16 75 -56 103 -88 69 -80
371 -378 413 -409 19 -13 62 -34 96 -45 35 -12 84 -36 110 -54 26 -19 81 -43
125 -56 61 -17 91 -33 130 -66 29 -24 52 -44 53 -44 1 0 39 -7 84 -14 85 -15
114 -27 198 -81 28 -17 72 -39 99 -48 74 -25 210 -120 303 -210 87 -84 112
-130 128 -227 4 -25 13 -67 20 -95 25 -90 29 -186 11 -248 -9 -31 -20 -99 -25
-151 -5 -51 -16 -107 -25 -124 -18 -34 -219 -253 -283 -307 -44 -37 -143 -83
-258 -118 -56 -18 -94 -22 -190 -21 -107 0 -127 3 -183 28 -35 14 -98 34 -140
42 -101 21 -115 29 -219 127 -48 45 -110 100 -138 122 -67 53 -212 202 -252
259 -39 55 -63 66 -149 66 l-64 0 0 -359 0 -359 53 -7 c28 -4 76 -20 104 -36
29 -16 67 -29 85 -29 17 0 52 -9 77 -21 306 -141 449 -162 913 -132 225 15
319 33 401 77 34 19 88 42 121 52 43 13 74 32 116 70 31 29 81 65 111 80 70
35 191 156 257 259 28 44 67 101 87 127 37 49 55 93 75 190 8 39 24 75 51 110
21 29 42 66 45 83 3 17 4 130 2 250 -3 192 -5 224 -22 255 -45 84 -56 111 -56
135 0 14 -6 38 -14 53 -7 15 -19 52 -26 82 -7 30 -23 73 -35 95 -29 51 -227
243 -257 250 -13 2 -45 10 -72 15 -35 8 -63 23 -98 55 -32 29 -62 46 -86 50
-48 8 -123 34 -142 50 -21 18 -179 95 -194 95 -6 0 -28 9 -49 19 -20 10 -48
22 -63 25 -14 4 -43 20 -65 35 -27 20 -62 33 -112 42 -84 14 -112 27 -147 64
-14 15 -55 47 -92 71 -38 24 -68 48 -68 54 0 6 -36 47 -80 93 -83 86 -95 107
-129 221 -36 120 -38 213 -6 367 15 74 33 146 41 161 8 15 51 64 95 110 45 46
93 100 106 120 28 41 65 58 130 58 25 0 71 11 106 26 97 41 156 42 262 5 50
-17 124 -36 165 -42 41 -6 88 -17 105 -24 16 -7 80 -62 140 -122 127 -127 182
-162 230 -144 17 6 55 11 83 11 79 0 95 23 128 188 22 113 10 163 -50 211 -23
18 -53 51 -67 72 -26 42 -71 65 -145 76 -29 4 -56 17 -83 40 -33 28 -52 35
-113 44 -96 13 -539 20 -603 9z M35422 8048 c-79 -7 -112 -15 -147 -35 -25
-13 -45 -28 -45 -33 0 -12 -84 -30 -145 -30 -93 0 -139 -17 -205 -76 -35 -31
-70 -54 -83 -54 -12 0 -33 -8 -47 -18 -46 -32 -177 -168 -214 -223 -20 -30
-47 -68 -59 -85 -13 -18 -34 -65 -46 -105 -13 -41 -38 -101 -56 -134 -45 -81
-55 -148 -55 -351 0 -188 7 -221 59 -298 17 -24 39 -75 50 -113 10 -38 26 -83
34 -99 17 -32 209 -240 299 -323 73 -68 275 -172 379 -195 71 -16 93 -26 167
-81 18 -13 59 -29 90 -36 50 -10 198 -75 228 -100 6 -5 44 -16 85 -26 68 -15
78 -21 129 -73 31 -31 69 -64 85 -73 17 -9 41 -31 54 -50 14 -18 40 -44 58
-58 40 -30 59 -68 67 -139 4 -30 20 -80 35 -110 24 -47 30 -72 36 -168 7 -113
7 -113 -21 -149 -23 -30 -29 -50 -34 -118 -7 -91 -21 -122 -93 -207 -191 -229
-223 -254 -392 -314 -106 -37 -116 -38 -262 -42 -147 -4 -154 -3 -209 22 -32
15 -94 36 -138 47 -108 27 -91 15 -345 244 -106 95 -210 165 -246 165 -38 0
-101 -53 -130 -110 -59 -116 -140 -118 -220 -6 -16 22 -45 58 -64 79 -24 27
-40 61 -58 123 -13 48 -40 116 -60 152 -19 35 -44 99 -55 141 -10 43 -35 104
-58 141 -21 36 -42 78 -46 94 -4 15 -22 53 -40 84 -19 31 -34 63 -34 71 0 9
-12 38 -26 64 -14 27 -32 81 -40 120 -11 51 -24 82 -45 107 -39 46 -63 100
-83 184 -10 41 -27 84 -44 104 -50 63 -54 70 -73 144 -11 40 -23 87 -28 104
-5 18 -20 47 -34 66 -23 30 -38 74 -61 178 -3 14 -25 52 -50 85 -30 41 -49 81
-61 125 -9 36 -35 96 -57 133 -22 37 -49 96 -58 130 -33 117 -51 158 -84 204
-13 18 -31 66 -40 106 -14 61 -25 83 -61 126 -30 35 -50 71 -61 109 -29 106
-36 122 -58 150 -38 45 -56 88 -71 173 -15 86 -24 102 -112 197 -43 46 -54 52
-89 52 -49 0 -69 -14 -168 -114 -85 -87 -96 -107 -96 -166 0 -23 -13 -68 -30
-104 -16 -36 -43 -109 -61 -163 -33 -103 -70 -178 -125 -253 -20 -29 -38 -71
-48 -113 -10 -41 -30 -88 -51 -120 -20 -28 -45 -83 -56 -122 -15 -48 -33 -83
-60 -114 -22 -24 -44 -62 -50 -85 -29 -114 -41 -144 -64 -166 -14 -13 -25 -29
-25 -35 0 -7 -10 -32 -23 -56 -13 -24 -29 -66 -36 -93 -6 -26 -27 -79 -46
-116 -19 -38 -43 -100 -54 -138 -22 -80 -31 -98 -76 -157 -18 -24 -38 -67 -45
-97 -16 -68 -31 -95 -75 -137 -37 -36 -47 -63 -63 -173 -9 -58 -16 -75 -51
-114 -25 -28 -43 -60 -47 -83 -12 -73 -24 -107 -49 -141 -14 -19 -25 -42 -25
-53 0 -10 -5 -27 -10 -38 -6 -10 -21 -62 -34 -115 -22 -86 -28 -100 -73 -147
-34 -36 -53 -66 -61 -97 -6 -26 -31 -71 -57 -104 -25 -32 -48 -71 -50 -85 -3
-14 -16 -57 -28 -96 -18 -57 -32 -79 -73 -120 -64 -62 -74 -81 -74 -143 0 -58
-20 -82 -69 -82 -33 0 -75 34 -86 71 -4 11 -43 47 -88 80 -80 59 -83 60 -132
55 -27 -3 -121 -10 -207 -15 -86 -5 -162 -13 -169 -17 -7 -4 -168 -13 -358
-20 -190 -8 -369 -17 -398 -20 l-52 -6 -82 83 c-45 46 -85 95 -91 108 -5 14
-11 59 -14 100 -3 42 -7 793 -7 1669 l-2 1594 -35 32 c-20 18 -52 55 -73 83
-21 29 -50 56 -66 61 -41 15 -270 3 -298 -14 -13 -8 -23 -19 -23 -25 0 -28
-34 -78 -61 -89 -16 -7 -35 -22 -41 -34 -8 -15 -10 -236 -8 -786 2 -421 4
-1251 5 -1845 1 -1092 2 -1125 35 -1125 6 0 30 -31 54 -69 32 -50 53 -71 77
-80 23 -8 294 -11 951 -11 794 0 924 2 955 15 49 21 250 21 300 0 51 -22 93
-19 135 10 20 14 62 28 97 34 59 10 102 31 132 67 7 9 31 27 51 40 53 33 66
59 87 162 11 54 30 112 48 144 17 29 38 78 48 108 10 30 24 64 30 75 7 11 16
47 20 80 8 72 22 106 68 174 27 38 37 66 42 109 11 96 15 111 50 151 21 26 38
63 50 108 32 125 37 136 108 212 95 103 98 104 187 106 48 2 88 9 108 19 51
26 144 30 292 11 108 -14 193 -16 440 -14 338 4 348 3 389 -57 14 -19 44 -49
67 -66 32 -23 48 -45 65 -87 12 -31 35 -84 51 -119 15 -34 28 -67 28 -74 0 -6
13 -37 30 -69 16 -33 37 -91 46 -131 13 -57 24 -79 56 -114 34 -36 41 -54 52
-116 19 -102 52 -209 96 -303 20 -44 42 -107 49 -140 7 -33 23 -78 36 -100 28
-49 146 -169 205 -210 l43 -30 198 0 197 0 44 31 c56 41 59 59 14 74 -32 10
-36 15 -36 46 0 32 2 34 35 34 19 0 35 -3 35 -8 0 -4 11 -20 25 -35 20 -21 35
-27 65 -27 22 0 57 -7 77 -15 21 -8 67 -21 103 -29 36 -8 101 -31 145 -51 135
-62 179 -68 545 -69 374 -1 513 14 605 64 28 15 68 33 90 40 22 7 54 23 70 35
17 13 41 26 55 30 14 4 32 13 40 20 8 7 47 29 85 48 102 51 290 241 349 353
23 43 57 102 74 130 18 28 32 57 32 64 0 8 21 58 46 112 l46 98 7 163 c4 89 7
209 6 267 -1 99 -5 114 -55 260 -29 85 -59 167 -66 182 -8 15 -74 88 -146 163
-113 115 -141 138 -188 156 -30 11 -74 36 -97 55 -46 38 -68 47 -156 64 -48
10 -69 21 -113 61 -50 46 -58 49 -107 49 -72 0 -115 14 -152 50 -31 30 -82 49
-183 70 -50 11 -74 23 -122 61 -20 15 -60 38 -90 52 -30 13 -69 39 -86 58 -17
19 -81 82 -142 140 l-112 106 -11 84 c-5 46 -14 102 -19 124 -16 66 -12 150
10 204 10 27 22 73 26 103 11 86 27 111 150 238 126 129 116 122 302 181 98
30 108 31 220 26 94 -4 139 -12 232 -41 104 -31 119 -39 151 -76 20 -23 47
-49 61 -58 14 -9 55 -44 90 -78 l65 -61 109 -6 c126 -8 141 -1 184 74 21 38
25 59 28 156 4 100 2 117 -18 158 -12 25 -25 45 -29 45 -4 0 -28 15 -52 33
-49 38 -158 87 -192 87 -23 0 -44 11 -92 45 -50 35 -464 55 -703 33z m-3095
-1143 c19 -13 56 -62 139 -183 13 -19 35 -72 49 -119 15 -47 41 -108 60 -137
29 -45 63 -133 79 -206 3 -14 21 -46 41 -72 27 -34 38 -61 46 -107 5 -33 14
-72 19 -87 15 -40 12 -75 -14 -129 -37 -80 -37 -80 -225 -81 -91 -1 -258 -6
-371 -12 -189 -9 -208 -8 -240 8 -47 24 -150 133 -150 158 0 12 9 36 20 55 11
18 29 60 40 93 11 32 29 70 39 84 34 46 48 85 61 163 10 63 22 92 54 141 24
36 53 102 70 154 25 80 36 100 106 185 43 52 85 97 92 100 26 10 64 7 85 -8z
M20620 7979 c-148 -27 -245 -30 -361 -14 -91 13 -154 15 -295 10 -98 -3 -240
-7 -314 -8 -155 -3 -162 -5 -255 -92 -54 -50 -60 -59 -60 -97 0 -36 6 -46 45
-81 25 -21 70 -51 100 -65 60 -28 125 -32 251 -17 50 6 79 4 121 -9 72 -21 95
-20 209 4 52 11 124 20 160 20 36 0 88 7 115 15 90 27 100 24 196 -70 80 -78
88 -90 98 -141 9 -42 10 -460 4 -1667 -6 -1477 -6 -1617 9 -1667 16 -53 68
-134 133 -208 l31 -35 116 -8 c134 -10 154 -5 193 48 16 21 36 42 44 47 8 5
30 24 48 42 l32 32 -1 1534 c0 848 -4 1571 -10 1618 -5 47 -11 110 -15 142 -5
47 -2 65 19 110 13 29 28 63 31 75 4 13 27 37 52 55 24 17 44 35 44 39 0 4 13
21 29 38 26 27 36 31 83 31 29 0 75 -7 102 -15 27 -8 66 -15 87 -15 21 0 84
-9 141 -19 57 -10 180 -24 274 -31 184 -13 189 -12 247 36 18 15 42 24 62 24
30 0 40 -7 77 -56 24 -30 56 -78 71 -107 l28 -52 0 -355 c1 -195 1 -456 2
-580 0 -124 0 -708 -1 -1299 -1 -1046 0 -1076 19 -1113 11 -21 23 -38 27 -38
5 0 30 -33 56 -74 27 -41 55 -78 65 -81 9 -4 68 -8 131 -10 139 -5 152 1 177
81 16 51 63 114 85 114 5 0 17 17 26 38 15 33 17 107 17 772 1 404 5 752 9
773 6 29 25 55 75 103 73 70 110 82 132 42 6 -12 40 -52 75 -89 35 -38 64 -72
64 -76 0 -4 19 -21 41 -38 75 -55 167 -169 184 -230 13 -42 26 -63 56 -88 22
-17 56 -58 75 -90 20 -31 44 -62 54 -67 11 -6 38 -42 60 -80 22 -38 50 -76 61
-83 11 -8 34 -34 51 -58 18 -24 57 -72 87 -107 31 -34 79 -88 107 -120 28 -31
59 -72 69 -91 9 -18 33 -52 54 -75 21 -22 48 -57 61 -76 13 -19 39 -53 57 -74
18 -22 43 -60 55 -85 12 -25 43 -71 70 -101 72 -82 159 -178 195 -217 l32 -34
69 7 c64 6 74 4 133 -25 62 -30 68 -31 198 -31 121 0 137 2 170 22 31 20 51
23 160 25 106 2 130 -1 162 -18 37 -18 65 -19 766 -19 536 0 775 4 907 15 155
12 184 12 220 0 91 -32 136 -10 136 67 0 31 -4 38 -20 38 -15 0 -20 7 -20 25
0 21 5 25 30 25 23 0 30 -4 30 -20 0 -15 7 -20 26 -20 45 0 64 17 64 59 0 37
-30 91 -50 91 -5 0 -47 27 -92 59 -46 32 -101 64 -123 70 -61 17 -172 13 -280
-9 -75 -15 -139 -20 -279 -21 -99 0 -206 -4 -236 -9 -30 -5 -131 -14 -224 -20
l-169 -10 -83 85 -84 85 -1 83 c-5 433 -3 1208 4 1229 12 37 173 178 206 179
14 1 247 1 516 -1 335 -1 499 2 518 9 18 7 35 26 47 53 10 24 33 56 49 72 38
36 38 46 5 77 -14 13 -37 45 -50 71 -26 51 -40 62 -95 72 -19 3 -261 7 -537 7
l-502 1 -28 23 c-15 13 -33 34 -40 47 -7 13 -33 36 -57 51 -24 16 -48 40 -53
55 -6 18 -6 110 0 252 5 124 6 351 3 506 -8 318 -6 330 61 376 22 15 47 41 57
58 25 42 70 64 116 55 20 -3 207 -10 416 -14 304 -6 394 -11 448 -25 40 -10
116 -17 186 -19 l118 -2 66 45 c67 46 97 83 97 119 0 16 -10 23 -44 32 -52 13
-75 35 -96 92 -13 36 -21 43 -60 55 -58 17 -766 31 -1353 27 -475 -4 -467 -3
-521 -85 -17 -25 -37 -52 -46 -60 -9 -8 -24 -26 -33 -40 -16 -23 -17 -122 -17
-1380 0 -857 4 -1433 11 -1568 8 -162 8 -244 -1 -340 -6 -70 -15 -179 -20
-242 -9 -131 -17 -159 -56 -189 -55 -43 -96 -25 -165 75 -16 23 -46 56 -68 73
-22 18 -50 48 -62 69 -13 20 -54 71 -93 112 -38 41 -87 102 -108 135 -21 33
-54 72 -73 87 -19 16 -48 58 -65 96 -18 37 -55 92 -84 123 -28 31 -82 93 -121
139 -38 45 -91 107 -117 136 -26 30 -55 71 -63 91 -9 21 -35 58 -59 83 -23 25
-51 59 -61 75 -20 32 -80 105 -161 194 -148 164 -186 239 -151 302 35 66 81
130 97 139 10 6 54 10 98 10 l80 0 48 44 c30 26 74 52 111 66 34 12 79 37 100
55 21 18 57 42 79 53 25 13 99 81 180 167 l139 145 12 69 c8 47 21 81 43 113
41 57 49 122 50 372 l0 188 -36 82 c-54 124 -61 134 -167 240 -54 54 -110 116
-123 138 -18 28 -41 46 -79 63 -30 14 -76 40 -102 58 -63 45 -95 55 -227 69
-111 13 -222 15 -391 8 -92 -3 -300 8 -570 32 -189 16 -748 15 -800 -2 -21 -7
-46 -27 -62 -48 -40 -55 -52 -62 -105 -62 -26 0 -48 -3 -48 -8 0 -4 -11 -20
-25 -35 -19 -19 -36 -27 -60 -27 -40 0 -64 28 -80 94 -12 49 -44 67 -150 88
-56 12 -117 12 -310 5 -166 -7 -342 -6 -570 2 -365 13 -606 13 -675 0z m3510
-306 c30 -14 78 -42 105 -63 28 -20 70 -48 95 -62 68 -39 195 -176 228 -244
l27 -59 0 -255 c0 -276 1 -268 -60 -345 -18 -22 -42 -61 -54 -86 -13 -28 -37
-58 -61 -74 -22 -15 -40 -31 -40 -35 0 -11 -116 -130 -127 -130 -5 0 -28 -17
-51 -38 -49 -44 -108 -68 -212 -83 -41 -6 -127 -21 -190 -35 -89 -18 -152 -24
-276 -26 l-162 -3 -89 91 -90 91 -5 74 c-11 151 -10 1096 1 1117 6 11 27 30
47 43 20 12 49 40 65 62 55 76 52 75 380 82 161 3 295 8 298 11 12 11 120 -10
171 -33z M37935 7974 c-75 -12 -132 -13 -340 -5 -314 13 -711 5 -742 -15 -13
-8 -25 -29 -28 -48 -9 -43 -36 -72 -85 -92 -66 -27 -63 -93 6 -141 15 -10 47
-37 73 -60 26 -23 58 -44 72 -48 30 -7 82 12 119 45 20 18 32 21 65 15 21 -3
46 -11 54 -18 19 -16 204 -11 285 7 86 20 386 32 414 17 12 -6 31 -30 42 -51
11 -22 38 -51 60 -65 22 -14 40 -31 41 -38 0 -6 0 -784 0 -1727 -1 -1638 0
-1716 17 -1735 10 -11 48 -48 84 -82 l66 -63 92 0 c50 0 101 5 113 12 25 13
65 56 72 78 5 17 75 50 105 50 22 0 35 20 44 70 3 19 6 791 7 1715 1 924 3
1688 6 1697 2 10 21 27 42 38 20 12 48 39 61 60 14 22 37 45 53 51 46 19 281
5 412 -24 79 -18 155 -27 271 -31 178 -8 196 -4 255 49 21 19 56 43 78 55 57
29 75 59 68 117 -6 54 -37 88 -71 78 -12 -3 -36 -9 -55 -12 l-33 -6 7 53 c4
33 3 55 -3 59 -6 3 -187 5 -404 3 -494 -4 -515 -4 -908 2 -258 4 -343 2 -415
-10z M11185 7961 c-96 -9 -133 -27 -168 -80 -15 -22 -40 -47 -56 -55 -16 -9
-34 -29 -39 -46 -17 -47 -18 -3651 -2 -3676 7 -10 31 -32 53 -49 31 -23 45
-43 58 -85 10 -30 19 -56 19 -57 1 -13 60 -29 125 -35 44 -4 95 -10 112 -14
52 -10 81 3 110 49 15 23 42 60 60 83 65 81 63 55 68 848 3 396 5 739 5 760 0
59 18 113 43 131 12 8 43 15 70 15 53 0 46 6 167 -126 77 -85 131 -151 223
-273 115 -153 197 -249 322 -376 104 -106 160 -170 271 -310 26 -33 98 -113
158 -178 61 -65 114 -127 118 -137 11 -30 84 -133 113 -160 15 -14 39 -43 53
-65 37 -58 181 -204 224 -226 30 -15 72 -21 223 -28 103 -5 200 -5 216 -1 16
5 58 34 94 66 77 69 82 91 29 137 -20 18 -47 51 -61 74 -13 24 -37 53 -52 66
-40 33 -131 143 -173 207 -19 30 -44 64 -55 75 -10 11 -41 47 -68 80 -61 75
-115 140 -182 216 -29 32 -53 63 -53 69 0 6 -28 39 -62 74 -35 35 -108 112
-163 171 -55 59 -129 137 -165 174 -70 72 -122 133 -190 225 -24 33 -58 72
-76 88 -18 16 -43 46 -55 66 -22 36 -54 71 -194 214 -36 37 -65 71 -65 76 0 5
-20 30 -45 56 -25 25 -50 57 -55 71 -15 40 -12 90 8 116 10 13 33 49 51 79 22
37 134 154 349 365 174 170 430 422 567 560 138 137 290 286 339 330 48 44 97
97 107 117 10 20 37 54 59 74 31 28 40 45 40 69 0 38 -25 92 -48 104 -16 8
-96 31 -186 52 -47 12 -100 -11 -161 -69 -22 -21 -60 -52 -85 -70 -25 -18 -60
-52 -78 -75 -18 -23 -111 -123 -206 -222 -95 -99 -213 -224 -262 -278 -49 -54
-101 -106 -115 -115 -30 -19 -154 -150 -187 -198 -41 -59 -538 -549 -590 -581
-58 -37 -88 -41 -135 -17 -43 22 -67 44 -80 74 -7 17 -9 241 -8 686 3 733 7
692 -64 747 -19 16 -43 44 -53 64 -34 72 -78 87 -217 74z M6313 7949 c-21 -6
-43 -25 -62 -53 -16 -23 -51 -61 -76 -82 l-46 -39 -4 -1760 c-1 -968 -6 -1780
-10 -1805 -10 -57 -29 -96 -55 -110 -11 -6 -28 -29 -36 -51 -14 -34 -20 -39
-48 -39 -50 0 -70 20 -63 63 7 47 -28 114 -78 148 -21 14 -47 48 -66 84 -17
33 -67 98 -111 145 -44 47 -95 108 -113 135 -38 56 -186 211 -256 267 -25 20
-54 53 -63 72 -17 37 -135 189 -227 293 -27 32 -83 95 -122 141 -40 46 -101
116 -137 156 -36 40 -90 101 -120 136 -30 35 -82 91 -115 125 -141 145 -175
184 -219 248 -51 75 -56 106 -27 153 10 17 29 59 42 94 20 55 30 68 82 106 52
39 126 110 208 200 15 16 84 81 155 144 71 63 170 158 219 210 50 51 101 105
115 120 14 14 42 48 62 75 21 28 72 83 115 124 43 41 105 100 138 132 33 31
74 65 90 75 33 21 82 65 211 192 55 54 84 90 84 105 0 12 -12 50 -26 84 -27
63 -63 93 -112 93 -11 0 -43 5 -71 12 -73 17 -121 0 -163 -56 -18 -24 -53 -58
-78 -75 -25 -17 -85 -75 -135 -127 -146 -155 -349 -365 -364 -378 -8 -6 -38
-36 -67 -66 -29 -30 -59 -61 -66 -67 -182 -174 -349 -345 -361 -369 -9 -18
-31 -45 -48 -60 -18 -16 -57 -53 -88 -81 -30 -29 -59 -53 -63 -53 -4 0 -63
-55 -132 -122 -161 -161 -230 -218 -261 -218 -34 0 -90 52 -110 102 -26 65
-36 328 -34 878 1 272 1 505 0 516 -1 13 -17 32 -40 47 -22 15 -53 46 -70 71
-39 56 -68 66 -193 66 -118 0 -143 -10 -177 -73 -15 -28 -39 -54 -63 -67 -21
-12 -43 -30 -49 -42 -11 -21 -13 -624 -6 -2678 3 -980 4 -1009 40 -1045 9 -8
36 -47 62 -86 27 -39 58 -75 72 -80 28 -10 202 -2 248 12 21 6 37 23 55 56 14
26 45 67 70 91 40 40 45 50 51 106 3 33 4 239 2 456 -2 217 -1 542 4 721 l8
326 40 79 c30 60 46 80 63 82 31 5 46 -10 79 -75 16 -31 45 -70 66 -87 73 -59
189 -180 221 -231 36 -56 84 -100 138 -129 20 -11 49 -35 65 -54 15 -19 50
-56 76 -81 36 -35 54 -63 73 -115 24 -68 43 -93 174 -239 31 -34 69 -80 85
-102 16 -22 69 -81 119 -130 132 -132 188 -199 216 -261 24 -51 64 -101 186
-228 29 -29 59 -65 68 -78 9 -14 49 -46 90 -71 l74 -47 107 0 c59 0 136 5 171
12 55 10 66 9 88 -6 18 -11 42 -16 78 -14 l52 3 7 -46 c8 -52 21 -81 50 -110
29 -29 24 -77 -15 -135 -19 -28 -52 -65 -74 -82 -21 -17 -50 -47 -63 -67 -26
-40 -84 -75 -123 -75 -42 0 -105 -30 -127 -62 -25 -34 -20 -77 13 -134 31 -52
44 -56 139 -37 46 8 120 18 164 20 74 5 83 8 117 39 24 22 60 40 99 51 47 13
74 29 117 67 119 109 223 220 236 250 7 17 32 53 54 79 57 65 60 74 82 187 22
116 35 139 95 169 25 12 45 27 45 32 0 5 -11 26 -25 47 l-24 37 10 250 c5 138
11 961 12 1830 2 1721 5 1631 -54 1656 -17 6 -43 31 -60 55 -16 24 -38 48 -49
54 -23 12 -213 12 -257 -1z M8687 7926 c-34 -31 -53 -71 -61 -129 -6 -38 -16
-56 -47 -87 -32 -30 -46 -56 -64 -117 -14 -43 -40 -103 -60 -133 -19 -30 -46
-88 -59 -130 -13 -41 -29 -88 -35 -105 -6 -16 -13 -41 -15 -55 -3 -14 -20 -43
-39 -65 -19 -22 -37 -51 -40 -65 -4 -14 -24 -53 -47 -86 -30 -46 -44 -81 -58
-146 -19 -86 -23 -95 -75 -160 -16 -21 -35 -66 -47 -113 -12 -47 -31 -92 -47
-112 -16 -19 -36 -45 -46 -57 -10 -13 -24 -59 -32 -109 -15 -95 -15 -95 -58
-149 -17 -21 -37 -67 -49 -110 -10 -40 -31 -90 -46 -110 -15 -21 -37 -51 -48
-68 -12 -16 -30 -61 -39 -100 -11 -46 -33 -94 -62 -138 -24 -37 -46 -78 -49
-92 -16 -70 -39 -124 -70 -161 -47 -57 -50 -62 -68 -158 -8 -46 -22 -91 -29
-100 -25 -30 -85 -147 -92 -182 -4 -19 -25 -66 -46 -105 -22 -41 -45 -102 -54
-145 -15 -70 -40 -122 -86 -180 -11 -14 -29 -58 -39 -99 -16 -64 -26 -80 -71
-126 -46 -46 -52 -58 -57 -103 -6 -67 2 -95 33 -109 14 -6 34 -31 46 -58 27
-57 63 -80 139 -88 59 -7 120 10 120 33 0 5 29 38 65 72 71 70 86 99 105 204
7 39 27 100 46 137 19 36 40 99 48 140 19 97 30 124 71 169 39 43 49 77 65
204 17 134 26 159 64 188 24 19 36 37 40 64 19 107 32 128 159 249 67 63 135
122 150 130 24 13 91 15 405 16 207 0 471 -3 586 -7 l211 -7 77 -81 c62 -65
83 -96 104 -150 14 -37 36 -80 49 -95 35 -43 45 -67 61 -150 11 -59 23 -90 54
-134 23 -33 48 -86 60 -130 12 -40 27 -92 34 -115 6 -23 21 -55 32 -70 40 -54
53 -91 64 -179 12 -93 29 -141 60 -169 11 -10 31 -47 45 -84 20 -51 44 -85
105 -150 l80 -85 177 -2 c157 -1 184 1 224 18 55 23 92 59 114 111 19 47 14
67 -26 96 -36 26 -57 72 -69 147 -5 32 -21 72 -39 98 -17 24 -42 83 -56 131
-14 49 -34 102 -45 120 -11 18 -20 40 -20 50 0 10 -9 32 -20 50 -11 17 -27 63
-35 101 -9 38 -19 80 -22 94 -3 14 -23 49 -44 78 -20 29 -43 76 -49 105 -14
59 -29 90 -76 162 -18 27 -40 77 -49 110 -10 33 -24 67 -31 76 -8 8 -19 31
-25 50 -7 19 -20 45 -29 59 -19 27 -60 155 -60 186 0 11 -22 57 -49 103 -27
46 -53 102 -57 125 -5 31 -17 51 -50 81 -38 35 -45 49 -58 109 -9 44 -26 86
-49 119 -20 29 -40 75 -46 102 -5 28 -14 68 -19 90 -6 22 -15 65 -22 96 -8 44
-19 64 -50 94 -40 39 -56 77 -80 182 -6 29 -23 65 -36 80 -41 46 -54 79 -69
169 -9 58 -23 99 -42 130 -43 69 -103 187 -103 202 0 14 -30 73 -41 82 -16 13
-47 89 -52 127 -8 64 -111 261 -160 306 -35 33 -46 38 -72 32 -71 -15 -107
-17 -118 -6 -18 18 -63 12 -90 -13z m102 -1046 l73 -80 13 -86 c12 -70 21 -96
54 -144 27 -41 44 -82 56 -135 12 -55 26 -87 51 -118 43 -53 75 -120 109 -230
15 -48 33 -92 41 -98 24 -20 16 -63 -18 -101 -18 -20 -47 -52 -63 -73 l-30
-38 -370 0 c-416 -1 -396 -4 -480 77 -43 40 -45 45 -45 98 0 50 5 62 40 109
21 29 41 64 44 78 3 14 10 52 16 83 6 31 21 72 33 90 57 84 79 134 93 206 8
42 23 88 34 102 56 73 71 102 89 174 20 81 42 113 96 147 59 37 84 27 164 -61z"/>
  </g>
</svg>